HIERARCHY
ROOT Hips
{
	OFFSET 0.00000 0.00000 0.00000
	CHANNELS 6 Xposition Yposition Zposition Yrotation Zrotation Xrotation 
	JOINT Lumbar
	{
		OFFSET 0 0 0
		CHANNELS 3 Zrotation Xrotation Yrotation
		JOINT Neck
		{
			OFFSET 0.00 0.2701 0.00
			CHANNELS 3 Zrotation Xrotation Yrotation
			End Site
			{
				OFFSET 0.00 0.1379 0.00
			}
		}
		JOINT RightShoulder
		{
			OFFSET 0.0119 0.2289 0.1181
			CHANNELS 3 Zrotation Xrotation Yrotation
			JOINT RightElbow
			{
				OFFSET 0.00 -0.1475 0.00
				CHANNELS 2 Zrotation Yrotation
				JOINT RightWrist
				{
					OFFSET 0.00 -0.1605 0.00
					CHANNELS 2 Zrotation Xrotation
					End Site
					{
						OFFSET 0.0040 -0.1068 0.0006
					}
				}
			}
		}
		JOINT LeftShoulder
		{
			OFFSET 0.0119 0.2289 -0.1181
			CHANNELS 3 Zrotation Xrotation Yrotation
			JOINT LeftElbow
			{
				OFFSET 0.00 -0.1475 0.00
				CHANNELS 2 Zrotation Yrotation
				JOINT LeftWrist
				{
					OFFSET 0.00 -0.1605 0.00
					CHANNELS 2 Zrotation Xrotation
					End Site
					{
						OFFSET 0.0040 -0.1068 -0.0006
					}
				}
			}
		}
	}
	JOINT RightHip
	{
		OFFSET 0.0316 -0.0424 0.0458
		CHANNELS 3 Zrotation Xrotation Yrotation
		JOINT RightKnee
		{
			OFFSET 0.00 -0.2438 0.00
			CHANNELS 1 Zrotation
			JOINT RightAnkle
			{
				OFFSET 0.00 -0.2449 0.00
				CHANNELS 3 Zrotation Xrotation Yrotation
				End Site
				{
					OFFSET 0.1237 -0.0542 0.0051
				}
			}
		}
	}
	JOINT LeftHip
	{
		OFFSET 0.0316 -0.0424 -0.0458
		CHANNELS 3 Zrotation Xrotation Yrotation
		JOINT LeftKnee
		{
			OFFSET 0.00 -0.2438 0.00
			CHANNELS 1 Zrotation
			JOINT LeftAnkle
			{
				OFFSET 0.00 -0.2449 0.00
				CHANNELS 3 Zrotation Xrotation Yrotation
				End Site
				{
					OFFSET 0.1237 -0.0542 -0.0051
				}
			}
		}
	}
}
MOTION
Frames: 19
Frame Time: 0.02
-0.02647 0.57522 -0.05341 494.68864 0 3.00739 15.10032 -7.29215 -2.75022 -27.61382 4.77048 0.88217 4.26106 -19.54111 -27.80441 11.58707 94.18025 -21.73495 -5.76827 -12.18522 19.82783 -32.44019 79.90073 -110.42046 -79.69841 22.97539 6.80909 -7.81107 -20.00673 -61.17153 -38.54695 -6.74323 10.14583 -1.39422 -12.81109 21.31425 -14.59696 9.23253 7.12599 8.11821
-0.02713 0.57529 -0.05335 495.38433 0 3.09495 15.01181 -7.41822 -2.26167 -27.37752 4.28537 0.93121 4.11659 -18.9594 -27.84798 11.52483 93.70865 -21.2287 -5.96045 -12.20755 20.54311 -32.56336 80.24781 -110.49004 -79.69841 22.97539 6.58948 -7.85058 -20.32654 -60.99496 -38.53455 -6.74998 10.32268 -1.46914 -12.83946 21.09953 -14.62089 9.28722 6.83362 7.51141
-0.02779 0.57535 -0.05342 496.09827 0 3.20118 14.92403 -7.57539 -1.84755 -27.1681 3.80453 1.03023 3.98015 -18.39639 -27.87319 11.45421 93.13688 -20.71332 -6.19366 -12.21848 21.20878 -32.65553 80.58316 -110.61723 -79.69841 22.97539 6.36159 -7.8912 -20.63066 -60.81337 -38.52946 -6.75815 10.52906 -1.54744 -12.86642 20.90938 -14.66219 9.3616 6.50433 6.85008
-0.02844 0.57542 -0.05344 496.80369 0 3.2984 14.8366 -7.71907 -1.39261 -26.95338 3.32211 1.10072 3.84487 -17.82065 -27.90128 11.38785 92.63926 -20.21094 -6.39668 -12.22971 21.89888 -32.76034 80.92617 -110.71619 -79.69841 22.97539 6.13492 -7.92904 -20.94202 -60.63134 -38.5186 -6.7618 10.72569 -1.62413 -12.89325 20.69757 -14.69569 9.42428 6.19389 6.22284
-0.0291 0.57547 -0.05342 497.50864 0 3.39795 14.74698 -7.85971 -0.96355 -26.70749 2.83813 1.19486 3.68654 -17.26075 -27.9515 11.31916 92.01893 -19.67166 -6.64743 -12.26152 22.58369 -32.87395 81.26017 -110.82254 -79.69841 22.97539 5.91875 -7.97492 -21.25319 -60.459 -38.5197 -6.78182 10.90444 -1.70153 -12.92336 20.52862 -14.72851 9.49844 5.87554 5.55736
-0.02975 0.57556 -0.05352 498.21937 0 3.49732 14.66153 -8.01433 -0.49992 -26.53337 2.35786 1.25168 3.57902 -16.67313 -27.95205 11.25332 91.62808 -19.20623 -6.81002 -12.24831 23.26714 -32.9606 81.61003 -110.92739 -79.69841 22.97539 5.67916 -8.00555 -21.55948 -60.26788 -38.49424 -6.76681 11.12816 -1.77838 -12.94644 20.27926 -14.76637 9.55377 5.56374 4.95617
-0.03039 0.57578 -0.05394 498.9424 0 3.58809 14.59064 -8.19822 0.08044 -26.5545 1.89379 1.1968 3.61189 -16.0041 -27.81462 11.19974 91.93317 -18.95526 -6.70521 -12.10684 23.9539 -32.98371 82.00415 -111.0173 -79.69841 22.97539 5.37431 -7.9864 -21.87336 -60.00461 -38.42932 -6.67113 11.471 -1.84908 -12.94868 19.77122 -14.82169 9.54809 5.28915 4.5709
-0.03101 0.57603 -0.05447 499.67056 0 3.67865 14.52302 -8.39547 0.69702 -26.64645 1.43219 1.10228 3.69569 -15.30706 -27.62895 11.14902 92.46651 -18.77756 -6.51278 -11.92159 24.64159 -32.9801 82.41487 -111.10316 -79.69841 22.97539 5.04759 -7.95361 -22.17937 -59.72799 -38.33205 -6.53788 11.85773 -1.91948 -12.94418 19.18682 -14.88034 9.52359 5.02046 4.24789
-0.03163 0.57626 -0.05495 500.39623 0 3.77152 14.452 -8.5877 1.2946 -26.70406 0.96484 1.02358 3.75524 -14.62302 -27.46887 11.09547 92.87119 -18.56071 -6.3696 -11.76077 25.33167 -32.98577 82.81948 -111.18917 -79.69841 22.97539 4.73137 -7.93171 -22.47847 -59.46973 -38.22502 -6.41059 12.22373 -1.99272 -12.94394 18.65741 -14.93225 9.51034 4.7426 3.87988
-0.03228 0.57653 -0.05545 501.1237 0 3.85558 14.39002 -8.77642 1.90067 -26.7722 0.51674 0.95535 3.81958 -13.93758 -27.29245 11.04783 93.37699 -18.36765 -6.1882 -11.58058 26.00791 -33.00114 83.21792 -111.28501 -79.69841 22.97539 4.4086 -7.88904 -22.82323 -59.15357 -38.21705 -6.32792 12.59534 -2.05569 -12.93871 18.0437 -15.00606 9.48615 4.49126 3.57969
-0.03286 0.57671 -0.05592 501.84777 0 3.95784 14.3088 -8.97538 2.49824 -26.83422 0.02962 0.8559 3.88607 -13.24927 -27.13913 10.98896 93.72837 -18.14333 -6.06484 -11.43029 26.71419 -32.99207 83.63297 -111.3578 -79.69841 22.97539 4.09926 -7.88763 -23.06878 -58.96223 -38.00056 -6.14626 12.96367 -2.13867 -12.94216 17.58654 -15.03579 9.48034 4.18603 3.15471
-0.03335 0.5766 -0.05632 502.56665 0 4.10887 14.18363 -9.19771 3.06654 -26.86784 -0.57027 0.67407 3.94506 -12.55067 -27.05868 10.89605 93.59379 -17.8084 -6.12471 -11.37487 27.5001 -32.90758 84.09234 -111.37482 -79.69841 22.97539 3.79095 -7.99228 -23.06313 -59.0546 -37.16834 -5.67569 13.32622 -2.28754 -12.97218 17.58318 -14.93422 9.52684 3.73705 2.36411
-0.03377 0.57639 -0.05668 503.28094 0 4.27814 14.03712 -9.42984 3.62456 -26.89179 -1.20855 0.46297 4.00471 -11.85193 -27.00358 10.79229 93.29815 -17.44091 -6.24534 -11.35072 28.31694 -32.80234 84.56727 -111.36706 -79.69841 22.97539 3.50475 -8.14057 -22.95408 -59.2839 -36.13627 -5.11137 13.68121 -2.45453 -13.01095 17.73799 -14.78952 9.59278 3.23378 1.44869
-0.03418 0.57623 -0.05704 503.99351 0 4.44029 13.8938 -9.65867 4.18596 -26.916 -1.82656 0.26891 4.06455 -11.15904 -26.93897 10.69497 93.07787 -17.0923 -6.33715 -11.31137 29.122 -32.71615 85.03367 -111.36599 -79.69841 22.97539 3.23559 -8.27684 -22.87879 -59.49412 -35.2271 -4.60628 14.03029 -2.60629 -13.04516 17.82009 -14.67048 9.65193 2.74981 0.59253
-0.03476 0.57606 -0.05747 504.72184 0 4.59858 13.77801 -9.88394 4.75511 -26.95951 -2.45705 0.05792 4.1237 -10.4402 -26.86487 10.59105 92.85215 -16.72822 -6.43174 -11.27504 29.91779 -32.58813 85.50745 -111.38469 -79.69841 22.97539 2.8511 -8.38152 -22.8591 -59.52645 -34.18148 -4.02988 14.42031 -2.78766 -13.0818 17.90854 -14.52681 9.7025 2.28388 -0.27857
-0.03496 0.57588 -0.05774 505.41681 0 4.76791 13.59987 -10.11775 5.30387 -26.96041 -3.0699 -0.12452 4.18426 -9.77645 -26.81631 10.49868 92.6018 -16.38868 -6.53525 -11.23997 30.73979 -32.54301 85.96853 -111.35569 -79.69841 22.97539 2.7126 -8.56018 -22.69911 -59.95603 -33.3729 -3.58001 14.72279 -2.91156 -13.11528 18.01541 -14.42311 9.77494 1.77347 -1.14102
-0.03413 0.57568 -0.05759 506.01554 0 4.97466 13.2536 -10.38129 5.8103 -26.83847 -3.63124 -0.21861 4.244 -9.25888 -26.84033 10.4371 92.2749 -16.11572 -6.65647 -11.20464 31.63029 -32.72954 86.39748 -111.20654 -79.69841 22.97539 3.24613 -8.95284 -22.17671 -61.4988 -33.26942 -3.50457 14.78413 -2.87275 -13.14038 18.19471 -14.44989 9.9105 1.10116 -2.01759
-0.03291 0.57547 -0.05728 506.582 0 5.18988 12.84551 -10.65141 6.29421 -26.67491 -4.17219 -0.28331 4.30553 -8.79808 -26.88825 10.38809 91.93516 -15.86976 -6.78363 -11.169 32.54528 -33.00101 86.81166 -111.00916 -79.69841 22.97539 4.0267 -9.41467 -21.51646 -63.42603 -33.41133 -3.55951 14.75766 -2.77514 -13.16175 18.37681 -14.51707 10.06605 0.39541 -2.86883
-0.03186 0.57528 -0.05706 507.16638 0 5.39353 12.4665 -10.9128 6.78079 -26.53511 -4.71824 -0.36269 4.36925 -8.31524 -26.91961 10.33589 91.63339 -15.61726 -6.90319 -11.13112 33.44676 -33.23503 87.22824 -110.83034 -79.69841 22.97539 4.69575 -9.83158 -20.91993 -65.14643 -33.43988 -3.55353 14.77198 -2.70451 -13.18303 18.51773 -14.55887 10.20768 -0.26037 -3.68675
